# Blender v2.79 (sub 0) OBJ File: 'Fuzil.blend'
# www.blender.org
mtllib pente.mtl
o Cube.001
v 0.308327 -0.650647 -0.290877
v 0.342234 -0.650950 -0.278922
v 0.336599 -0.600408 -0.278922
v 0.303162 -0.600408 -0.290877
v 0.336599 -0.145526 -0.278922
v 0.336599 -0.120255 -0.290877
v 0.303162 -0.145526 -0.290877
v 0.308327 -0.650647 -0.506072
v 0.303162 -0.600408 -0.506072
v 0.336599 -0.600408 -0.518028
v 0.342234 -0.650950 -0.518028
v 0.336599 -0.120255 -0.506072
v 0.336599 -0.145526 -0.518028
v 0.303162 -0.145526 -0.506072
v 0.977082 -0.650647 -0.290877
v 0.971916 -0.600408 -0.290877
v 0.938478 -0.600408 -0.278922
v 0.943300 -0.650950 -0.278922
v 0.938478 -0.120255 -0.290877
v 0.938478 -0.145526 -0.278922
v 0.971916 -0.145526 -0.290877
v 0.943300 -0.650950 -0.518028
v 0.938478 -0.600408 -0.518028
v 0.971916 -0.600408 -0.506072
v 0.977082 -0.650647 -0.506072
v 0.938478 -0.120255 -0.506072
v 0.971916 -0.145526 -0.506072
v 0.938478 -0.145526 -0.518028
v 0.374241 -0.962826 -0.506072
v 0.362620 -0.913062 -0.506072
v 0.396401 -0.912759 -0.518028
v 0.408443 -0.963301 -0.518028
v 0.374241 -0.962826 -0.290877
v 0.408443 -0.963301 -0.278922
v 0.396401 -0.912759 -0.278922
v 0.362620 -0.913062 -0.290877
v 1.010327 -0.963301 -0.518028
v 0.997468 -0.912759 -0.518028
v 1.031374 -0.913062 -0.506072
v 1.044523 -0.962570 -0.506072
v 1.044523 -0.962570 -0.290877
v 1.031374 -0.913062 -0.290877
v 0.997468 -0.912759 -0.278922
v 1.010327 -0.963301 -0.278922
v 0.492312 -1.416385 -0.506072
v 0.524277 -1.408268 -0.518028
v 0.530541 -1.433310 -0.506072
v 0.492312 -1.416385 -0.290877
v 0.530541 -1.433310 -0.290877
v 0.524277 -1.408268 -0.278922
v 1.108029 -1.263662 -0.518028
v 1.139918 -1.255839 -0.506072
v 1.116126 -1.288250 -0.506072
v 1.139918 -1.255839 -0.290877
v 1.108029 -1.263662 -0.278922
v 1.116126 -1.288250 -0.290877
vn 0.0000 0.0000 1.0000
vn 0.0000 0.0000 -1.0000
vn -0.9677 -0.2519 0.0000
vn 1.0000 0.0000 0.0000
vn 0.9510 0.3093 0.0000
vn -1.0000 0.0000 0.0000
vn 0.9793 0.2026 0.0000
vn 0.0000 1.0000 0.0000
vn 0.2405 -0.9707 0.0000
vn -0.3345 -0.0358 0.9417
vn -0.3075 0.4069 0.8601
vn -0.3345 -0.0358 -0.9417
vn -0.3075 0.4069 -0.8601
vn 0.3348 0.0332 0.9417
vn 0.3075 0.4069 0.8601
vn 0.3348 0.0332 -0.9417
vn 0.3075 0.4069 -0.8601
vn -0.3310 -0.0781 -0.9404
vn -0.3310 -0.0781 0.9404
vn 0.3296 0.0857 -0.9402
vn 0.3296 0.0857 0.9402
vn -0.2050 -0.4630 -0.8624
vn -0.2050 -0.4630 0.8624
vn 0.3977 -0.2920 -0.8698
vn 0.3977 -0.2920 0.8698
vn -0.9948 -0.1023 0.0000
vn -0.3367 0.0000 0.9416
vn -0.6029 0.7978 0.0000
vn -0.3367 0.0000 -0.9416
vn 0.0000 0.4276 -0.9039
vn 0.3367 0.0000 -0.9416
vn 0.9948 0.1023 0.0000
vn 0.6029 0.7978 0.0000
vn 0.3367 0.0000 0.9416
vn 0.0000 0.4276 0.9039
vn -0.9738 -0.2274 0.0000
vn 0.9665 0.2567 0.0000
vn 0.3323 0.0687 0.9407
vn 0.3323 0.0687 -0.9407
vn -0.3323 -0.0687 -0.9407
vn -0.3323 -0.0687 0.9407
vn -0.4048 -0.9144 0.0000
vn 0.1011 -0.4079 -0.9074
vn 0.8061 -0.5917 0.0000
vn 0.1010 -0.4079 0.9074
vn -0.3298 -0.0859 0.9401
vn 0.3261 0.1061 0.9393
vn -0.3298 -0.0859 -0.9401
vn 0.3261 0.1061 -0.9393
vn -0.9793 -0.2026 0.0000
usemtl Material.001
s off
f 17//1 20//1 5//1 3//1
f 11//2 22//2 38//2 31//2
f 33//3 29//3 45//3 48//3
f 18//1 2//1 35//1 43//1
f 24//4 27//4 21//4 16//4
f 10//2 13//2 28//2 23//2
f 40//5 41//5 54//5 52//5
f 4//6 7//6 14//6 9//6
f 25//7 15//7 42//7 39//7
f 26//8 12//8 6//8 19//8
f 32//2 37//2 51//2 46//2
f 44//1 34//1 50//1 55//1
f 47//9 53//9 56//9 49//9
f 1//10 2//10 3//10 4//10
f 5//11 6//11 7//11
f 8//12 9//12 10//12 11//12
f 12//13 13//13 14//13
f 15//14 16//14 17//14 18//14
f 19//15 20//15 21//15
f 22//16 23//16 24//16 25//16
f 26//17 27//17 28//17
f 29//18 30//18 31//18 32//18
f 33//19 34//19 35//19 36//19
f 37//20 38//20 39//20 40//20
f 41//21 42//21 43//21 44//21
f 45//22 46//22 47//22
f 48//23 49//23 50//23
f 51//24 52//24 53//24
f 54//25 55//25 56//25
f 8//26 1//26 4//26 9//26
f 3//27 5//27 7//27 4//27
f 6//28 12//28 14//28 7//28
f 13//29 10//29 9//29 14//29
f 22//2 11//2 10//2 23//2
f 12//30 26//30 28//30 13//30
f 27//31 24//31 23//31 28//31
f 15//32 25//32 24//32 16//32
f 26//33 19//33 21//33 27//33
f 20//34 17//34 16//34 21//34
f 2//1 18//1 17//1 3//1
f 19//35 6//35 5//35 20//35
f 29//36 33//36 36//36 30//36
f 37//2 32//2 31//2 38//2
f 41//37 40//37 39//37 42//37
f 34//1 44//1 43//1 35//1
f 18//38 43//38 42//38 15//38
f 38//39 22//39 25//39 39//39
f 11//40 31//40 30//40 8//40
f 35//41 2//41 1//41 36//41
f 47//42 49//42 48//42 45//42
f 53//43 47//43 46//43 51//43
f 56//44 53//44 52//44 54//44
f 49//45 56//45 55//45 50//45
f 33//46 48//46 50//46 34//46
f 54//47 41//47 44//47 55//47
f 32//48 46//48 45//48 29//48
f 40//49 52//49 51//49 37//49
f 1//50 8//50 30//50 36//50
